<?xml version="1.0" encoding="UTF-8" standalone="no"?>
<!-- Created with Inkscape (http://www.inkscape.org/) -->

<svg
   xmlns:dc="http://purl.org/dc/elements/1.1/"
   xmlns:cc="http://creativecommons.org/ns#"
   xmlns:rdf="http://www.w3.org/1999/02/22-rdf-syntax-ns#"
   xmlns:svg="http://www.w3.org/2000/svg"
   xmlns="http://www.w3.org/2000/svg"
   xmlns:sodipodi="http://sodipodi.sourceforge.net/DTD/sodipodi-0.dtd"
   xmlns:inkscape="http://www.inkscape.org/namespaces/inkscape"
   width="132.48746mm"
   height="135.46666mm"
   viewBox="0 0 132.48746 135.46666"
   version="1.1"
   id="svg8"
   sodipodi:docname="peachpink.vg.svg"
   inkscape:version="0.92.2 5c3e80d, 2017-08-06">
  <defs
     id="defs2" />
  <sodipodi:namedview
     id="base"
     pagecolor="#ffffff"
     bordercolor="#666666"
     borderopacity="1.0"
     inkscape:pageopacity="0.0"
     inkscape:pageshadow="2"
     inkscape:zoom="0.35"
     inkscape:cx="-279.26"
     inkscape:cy="-139.42858"
     inkscape:document-units="mm"
     inkscape:current-layer="g4651"
     showgrid="false"
     inkscape:window-width="1280"
     inkscape:window-height="755"
     inkscape:window-x="0"
     inkscape:window-y="1"
     inkscape:window-maximized="1"
     fit-margin-top="0"
     fit-margin-left="0"
     fit-margin-right="0"
     fit-margin-bottom="0" />
  <metadata
     id="metadata5">
    <rdf:RDF>
      <cc:Work
         rdf:about="">
        <dc:format>image/svg+xml</dc:format>
        <dc:type
           rdf:resource="http://purl.org/dc/dcmitype/StillImage" />
        <dc:title></dc:title>
      </cc:Work>
    </rdf:RDF>
  </metadata>
  <g
     inkscape:label="Layer 1"
     inkscape:groupmode="layer"
     id="layer1"
     transform="translate(-31.274128,-53.885715)">
    <g
       id="g4651"
       transform="matrix(0.26458333,0,0,0.26458333,29.784524,53.885715)">
      <path
         id="path4587"
         d="M 6.523,71.534 C 6.523,71.534 76.269,0 149.592,0 c 87.63,0 113.553,70.648 113.553,70.648 0,0 8.942,-57.227 71.534,-57.227 62.592,0 99.261,44.709 99.261,44.709 0,0 -50.976,30.387 -66.169,36.654 C 327.697,111.28 205.03,145.745 147.803,131.438 90.576,117.145 6.523,71.534 6.523,71.534"
         style="fill:#e1ecdc;fill-opacity:1"
         inkscape:connector-curvature="0" />
      <path
         id="path4589"
         d="m 248.847,84.053 c 0,0 14.908,-12.819 85.841,-12.819 93.595,0 171.682,68.859 171.682,184.945 C 506.37,421.151 292.368,512 292.368,512 292.368,512 5.63,496.563 5.63,255.406 c 0,-142.482 96.571,-185.66 157.376,-185.66 70.932,0 85.841,14.307 85.841,14.307"
         style="fill:#fbcdd1;fill-opacity:1"
         inkscape:connector-curvature="0" />
      <path
         id="path4591"
         d="M 6.523,71.534 C 6.523,71.534 76.269,0 149.592,0 c 87.63,0 113.553,70.648 113.553,70.648 0,0 -58.114,75.096 -115.342,60.789 C 90.576,117.145 6.523,71.534 6.523,71.534"
         style="fill:#e1ecdc;fill-opacity:1"
         inkscape:connector-curvature="0" />
      <path
         id="path4593"
         d="m 320.366,427.418 c -2.718,0 -5.48,-0.787 -7.926,-2.404 -6.581,-4.392 -8.355,-13.262 -3.963,-19.843 0.215,-0.315 26.21,-41.59 26.21,-135.128 0,-92.208 -65.497,-145.672 -66.169,-146.202 -6.167,-4.936 -7.168,-13.934 -2.232,-20.116 4.936,-6.152 13.934,-7.153 20.116,-2.232 3.133,2.518 76.899,62.736 76.899,168.55 0,103.296 -29.744,149.106 -31.017,151.009 -2.746,4.134 -7.296,6.366 -11.918,6.366"
         style="fill:#dd2e44"
         inkscape:connector-curvature="0" />
      <g
         id="g4595" />
      <g
         id="g4597" />
      <g
         id="g4599" />
      <g
         id="g4601" />
      <g
         id="g4603" />
      <g
         id="g4605" />
      <g
         id="g4607" />
      <g
         id="g4609" />
      <g
         id="g4611" />
      <g
         id="g4613" />
      <g
         id="g4615" />
      <g
         id="g4617" />
      <g
         id="g4619" />
      <g
         id="g4621" />
      <g
         id="g4623" />
    </g>
  </g>
</svg>
